<svg width="26" height="26" viewBox="0 0 26 26" fill="none" xmlns="http://www.w3.org/2000/svg">
<path d="M17.5956 10.9383C17.5956 9.14882 16.9597 7.61812 15.6877 6.34617C14.4158 5.07422 12.8851 4.43825 11.0956 4.43825C9.3062 4.43825 7.77551 5.07422 6.50356 6.34617C5.23161 7.61812 4.59563 9.14882 4.59563 10.9383C4.59563 12.7277 5.23161 14.2584 6.50356 15.5303C7.77551 16.8023 9.3062 17.4383 11.0956 17.4383C12.8851 17.4383 14.4158 16.8023 15.6877 15.5303C16.9597 14.2584 17.5956 12.7277 17.5956 10.9383ZM25.0242 23.0097C25.0242 23.5127 24.8404 23.9479 24.4729 24.3155C24.1053 24.683 23.67 24.8668 23.1671 24.8668C22.6447 24.8668 22.2095 24.683 21.8613 24.3155L16.8847 19.3534C15.1533 20.5528 13.2236 21.1525 11.0956 21.1525C9.71245 21.1525 8.38972 20.8841 7.12744 20.3473C5.86516 19.8105 4.77699 19.085 3.86293 18.171C2.94887 17.2569 2.22342 16.1687 1.68659 14.9064C1.14976 13.6442 0.881348 12.3214 0.881348 10.9383C0.881348 9.55507 1.14976 8.23234 1.68659 6.97006C2.22342 5.70778 2.94887 4.61961 3.86293 3.70555C4.77699 2.79149 5.86516 2.06604 7.12744 1.52921C8.38972 0.99238 9.71245 0.723965 11.0956 0.723965C12.4788 0.723965 13.8015 0.99238 15.0638 1.52921C16.3261 2.06604 17.4143 2.79149 18.3283 3.70555C19.2424 4.61961 19.9678 5.70778 20.5047 6.97006C21.0415 8.23234 21.3099 9.55507 21.3099 10.9383C21.3099 13.0662 20.7102 14.9959 19.5108 16.7273L24.4874 21.7039C24.8453 22.0618 25.0242 22.497 25.0242 23.0097Z" fill="white"/>
</svg>
