<svg width="20" height="22" viewBox="0 0 20 22" fill="none" xmlns="http://www.w3.org/2000/svg">
<g clip-path="url(#clip0_365_595)">
<path d="M20 18.1392C20 19.2756 19.6544 20.1728 18.9631 20.831C18.2718 21.4891 17.3532 21.8182 16.2074 21.8182H3.79261C2.64678 21.8182 1.72822 21.4891 1.03693 20.831C0.345644 20.1728 0 19.2756 0 18.1392C0 17.6373 0.016572 17.1472 0.0497159 16.669C0.0828599 16.1908 0.149148 15.6747 0.24858 15.1207C0.348011 14.5668 0.473485 14.053 0.625 13.5795C0.776515 13.1061 0.980114 12.6444 1.2358 12.1946C1.49148 11.7448 1.78504 11.3613 2.11648 11.044C2.44792 10.7268 2.85275 10.4735 3.33097 10.2841C3.80919 10.0947 4.33712 9.99999 4.91477 9.99999C5 9.99999 5.19886 10.1018 5.51136 10.3054C5.82386 10.509 6.17661 10.7363 6.5696 10.9872C6.96259 11.2382 7.47396 11.4654 8.10369 11.669C8.73343 11.8726 9.36553 11.9744 10 11.9744C10.6345 11.9744 11.2666 11.8726 11.8963 11.669C12.526 11.4654 13.0374 11.2382 13.4304 10.9872C13.8234 10.7363 14.1761 10.509 14.4886 10.3054C14.8011 10.1018 15 9.99999 15.0852 9.99999C15.6629 9.99999 16.1908 10.0947 16.669 10.2841C17.1473 10.4735 17.5521 10.7268 17.8835 11.044C18.215 11.3613 18.5085 11.7448 18.7642 12.1946C19.0199 12.6444 19.2235 13.1061 19.375 13.5795C19.5265 14.053 19.652 14.5668 19.7514 15.1207C19.8509 15.6747 19.9171 16.1908 19.9503 16.669C19.9834 17.1472 20 17.6373 20 18.1392ZM15.4545 5.45454C15.4545 6.96022 14.9219 8.24573 13.8565 9.31107C12.7912 10.3764 11.5057 10.9091 10 10.9091C8.49432 10.9091 7.20881 10.3764 6.14347 9.31107C5.07812 8.24573 4.54545 6.96022 4.54545 5.45454C4.54545 3.94886 5.07812 2.66335 6.14347 1.59801C7.20881 0.532663 8.49432 -5.72205e-06 10 -5.72205e-06C11.5057 -5.72205e-06 12.7912 0.532663 13.8565 1.59801C14.9219 2.66335 15.4545 3.94886 15.4545 5.45454Z" fill="white"/>
</g>
<defs>
<clipPath id="clip0_365_595">
<rect width="20" height="22" fill="white"/>
</clipPath>
</defs>
</svg>
